<?xml version="1.0" encoding="UTF-8"?><svg xmlns="http://www.w3.org/2000/svg" xmlns:xlink="http://www.w3.org/1999/xlink" stroke-dasharray="none" shape-rendering="auto" font-family="'Dialog'" width="877" text-rendering="auto" fill-opacity="1" contentScriptType="text/ecmascript" color-interpolation="auto" color-rendering="auto" preserveAspectRatio="xMidYMid meet" font-size="12" viewBox="0 0 877 1020" fill="black" stroke="black" image-rendering="auto" stroke-miterlimit="10" zoomAndPan="magnify" version="1.0" stroke-linecap="square" stroke-linejoin="miter" contentStyleType="text/css" font-style="normal" height="1020" stroke-width="1" stroke-dashoffset="0" font-weight="normal" stroke-opacity="1">
    <!--Generated by the Batik Graphics2D SVG Generator-->
    <defs id="genericDefs"/>
    <g>
        <defs id="defs1">
            <linearGradient x1="10" x2="10" y1="10" gradientUnits="userSpaceOnUse" y2="767" xlink:type="simple" xlink:actuate="onLoad" id="linearGradient1" xlink:show="other" spreadMethod="pad">
                <stop stop-opacity="1" stop-color="white" offset="0%"/>
                <stop stop-opacity="1" stop-color="white" offset="100%"/>
            </linearGradient>
            <linearGradient x1="170" x2="170" y1="44" gradientUnits="userSpaceOnUse" y2="744" xlink:type="simple" xlink:actuate="onLoad" id="linearGradient2" xlink:show="other" spreadMethod="pad">
                <stop stop-opacity="1" stop-color="white" offset="0%"/>
                <stop stop-opacity="1" stop-color="rgb(195,209,213)" offset="100%"/>
            </linearGradient>
            <linearGradient x1="210" x2="210" y1="110" gradientUnits="userSpaceOnUse" y2="411" xlink:type="simple" xlink:actuate="onLoad" id="linearGradient3" xlink:show="other" spreadMethod="pad">
                <stop stop-opacity="1" stop-color="white" offset="0%"/>
                <stop stop-opacity="1" stop-color="rgb(195,209,213)" offset="100%"/>
            </linearGradient>
            <linearGradient x1="430" x2="430" y1="101" gradientUnits="userSpaceOnUse" y2="743" xlink:type="simple" xlink:actuate="onLoad" id="linearGradient4" xlink:show="other" spreadMethod="pad">
                <stop stop-opacity="1" stop-color="white" offset="0%"/>
                <stop stop-opacity="1" stop-color="rgb(195,209,213)" offset="100%"/>
            </linearGradient>
            <linearGradient x1="470" x2="470" y1="190" gradientUnits="userSpaceOnUse" y2="211" xlink:type="simple" xlink:actuate="onLoad" id="linearGradient5" xlink:show="other" spreadMethod="pad">
                <stop stop-opacity="1" stop-color="white" offset="0%"/>
                <stop stop-opacity="1" stop-color="rgb(195,209,213)" offset="100%"/>
            </linearGradient>
            <linearGradient x1="470" x2="470" y1="330" gradientUnits="userSpaceOnUse" y2="351" xlink:type="simple" xlink:actuate="onLoad" id="linearGradient6" xlink:show="other" spreadMethod="pad">
                <stop stop-opacity="1" stop-color="white" offset="0%"/>
                <stop stop-opacity="1" stop-color="rgb(195,209,213)" offset="100%"/>
            </linearGradient>
            <linearGradient x1="630" x2="630" y1="44" gradientUnits="userSpaceOnUse" y2="744" xlink:type="simple" xlink:actuate="onLoad" id="linearGradient7" xlink:show="other" spreadMethod="pad">
                <stop stop-opacity="1" stop-color="white" offset="0%"/>
                <stop stop-opacity="1" stop-color="rgb(195,209,213)" offset="100%"/>
            </linearGradient>
            <linearGradient x1="695" x2="695" y1="250" gradientUnits="userSpaceOnUse" y2="271" xlink:type="simple" xlink:actuate="onLoad" id="linearGradient8" xlink:show="other" spreadMethod="pad">
                <stop stop-opacity="1" stop-color="white" offset="0%"/>
                <stop stop-opacity="1" stop-color="rgb(195,209,213)" offset="100%"/>
            </linearGradient>
            <linearGradient x1="695" x2="695" y1="389" gradientUnits="userSpaceOnUse" y2="410" xlink:type="simple" xlink:actuate="onLoad" id="linearGradient9" xlink:show="other" spreadMethod="pad">
                <stop stop-opacity="1" stop-color="white" offset="0%"/>
                <stop stop-opacity="1" stop-color="rgb(195,209,213)" offset="100%"/>
            </linearGradient>
            <clipPath clipPathUnits="userSpaceOnUse" id="clipPath1">
                <path d="M10 10 L10 766 L866 766 L866 10 Z"/>
            </clipPath>
            <clipPath clipPathUnits="userSpaceOnUse" id="clipPath2">
                <path d="M7 7 L870 7 L870 770 L7 770 L7 7 Z"/>
            </clipPath>
            <clipPath clipPathUnits="userSpaceOnUse" id="clipPath3">
                <path d="M15 12 L118 12 L118 29 L15 29 L15 12 Z"/>
            </clipPath>
            <clipPath clipPathUnits="userSpaceOnUse" id="clipPath4">
                <path d="M169 43 L271 43 L271 745 L169 745 L169 43 Z"/>
            </clipPath>
            <clipPath clipPathUnits="userSpaceOnUse" id="clipPath5">
                <path d="M170 44 L170 743 L269 743 L269 44 Z"/>
            </clipPath>
            <clipPath clipPathUnits="userSpaceOnUse" id="clipPath6">
                <path d="M187 46 L254 46 L254 63 L187 63 L187 46 Z"/>
            </clipPath>
            <clipPath clipPathUnits="userSpaceOnUse" id="clipPath7">
                <path d="M210 110 L210 410 L229 410 L229 110 Z"/>
            </clipPath>
            <clipPath clipPathUnits="userSpaceOnUse" id="clipPath8">
                <path d="M209 109 L231 109 L231 412 L209 412 L209 109 Z"/>
            </clipPath>
            <clipPath clipPathUnits="userSpaceOnUse" id="clipPath9">
                <path d="M429 100 L531 100 L531 744 L429 744 L429 100 Z"/>
            </clipPath>
            <clipPath clipPathUnits="userSpaceOnUse" id="clipPath10">
                <path d="M430 101 L430 742 L529 742 L529 101 Z"/>
            </clipPath>
            <clipPath clipPathUnits="userSpaceOnUse" id="clipPath11">
                <path d="M442 103 L520 103 L520 120 L442 120 L442 103 Z"/>
            </clipPath>
            <clipPath clipPathUnits="userSpaceOnUse" id="clipPath12">
                <path d="M470 190 L470 210 L489 210 L489 190 Z"/>
            </clipPath>
            <clipPath clipPathUnits="userSpaceOnUse" id="clipPath13">
                <path d="M469 189 L491 189 L491 212 L469 212 L469 189 Z"/>
            </clipPath>
            <clipPath clipPathUnits="userSpaceOnUse" id="clipPath14">
                <path d="M470 330 L470 350 L489 350 L489 330 Z"/>
            </clipPath>
            <clipPath clipPathUnits="userSpaceOnUse" id="clipPath15">
                <path d="M469 329 L491 329 L491 352 L469 352 L469 329 Z"/>
            </clipPath>
            <clipPath clipPathUnits="userSpaceOnUse" id="clipPath16">
                <path d="M629 43 L781 43 L781 745 L629 745 L629 43 Z"/>
            </clipPath>
            <clipPath clipPathUnits="userSpaceOnUse" id="clipPath17">
                <path d="M630 44 L630 743 L779 743 L779 44 Z"/>
            </clipPath>
            <clipPath clipPathUnits="userSpaceOnUse" id="clipPath18">
                <path d="M645 46 L767 46 L767 63 L645 63 L645 46 Z"/>
            </clipPath>
            <clipPath clipPathUnits="userSpaceOnUse" id="clipPath19">
                <path d="M695 250 L695 270 L714 270 L714 250 Z"/>
            </clipPath>
            <clipPath clipPathUnits="userSpaceOnUse" id="clipPath20">
                <path d="M694 249 L716 249 L716 272 L694 272 L694 249 Z"/>
            </clipPath>
            <clipPath clipPathUnits="userSpaceOnUse" id="clipPath21">
                <path d="M695 389 L695 409 L714 409 L714 389 Z"/>
            </clipPath>
            <clipPath clipPathUnits="userSpaceOnUse" id="clipPath22">
                <path d="M694 388 L716 388 L716 411 L694 411 L694 388 Z"/>
            </clipPath>
            <clipPath clipPathUnits="userSpaceOnUse" id="clipPath23">
                <path d="M9 9 L868 9 L868 768 L9 768 L9 9 Z"/>
            </clipPath>
            <clipPath clipPathUnits="userSpaceOnUse" id="clipPath24">
                <path d="M-1 -1 L878 -1 L878 1021 L-1 1021 L-1 -1 Z"/>
            </clipPath>
            <clipPath clipPathUnits="userSpaceOnUse" id="clipPath25">
                <path d="M327 309 L375 309 L375 326 L327 326 L327 309 Z"/>
            </clipPath>
            <clipPath clipPathUnits="userSpaceOnUse" id="clipPath26">
                <path d="M453 323 L472 323 L472 338 L453 338 L453 323 Z"/>
            </clipPath>
            <clipPath clipPathUnits="userSpaceOnUse" id="clipPath27">
                <path d="M293 89 L370 89 L370 106 L293 106 L293 89 Z"/>
            </clipPath>
            <clipPath clipPathUnits="userSpaceOnUse" id="clipPath28">
                <path d="M413 103 L432 103 L432 118 L413 118 L413 103 Z"/>
            </clipPath>
            <clipPath clipPathUnits="userSpaceOnUse" id="clipPath29">
                <path d="M448 275 L477 275 L477 292 L448 292 L448 275 Z"/>
            </clipPath>
            <clipPath clipPathUnits="userSpaceOnUse" id="clipPath30">
                <path d="M229 263 L248 263 L248 278 L229 278 L229 263 Z"/>
            </clipPath>
            <clipPath clipPathUnits="userSpaceOnUse" id="clipPath31">
                <path d="M314 215 L384 215 L384 232 L314 232 L314 215 Z"/>
            </clipPath>
            <clipPath clipPathUnits="userSpaceOnUse" id="clipPath32">
                <path d="M229 203 L248 203 L248 218 L229 218 L229 203 Z"/>
            </clipPath>
            <clipPath clipPathUnits="userSpaceOnUse" id="clipPath33">
                <path d="M399 229 L527 229 L527 246 L399 246 L399 229 Z"/>
            </clipPath>
            <clipPath clipPathUnits="userSpaceOnUse" id="clipPath34">
                <path d="M678 243 L697 243 L697 258 L678 258 L678 243 Z"/>
            </clipPath>
            <clipPath clipPathUnits="userSpaceOnUse" id="clipPath35">
                <path d="M273 169 L430 169 L430 186 L273 186 L273 169 Z"/>
            </clipPath>
            <clipPath clipPathUnits="userSpaceOnUse" id="clipPath36">
                <path d="M453 183 L472 183 L472 198 L453 198 L453 183 Z"/>
            </clipPath>
            <clipPath clipPathUnits="userSpaceOnUse" id="clipPath37">
                <path d="M399 369 L527 369 L527 386 L399 386 L399 369 Z"/>
            </clipPath>
            <clipPath clipPathUnits="userSpaceOnUse" id="clipPath38">
                <path d="M678 383 L697 383 L697 398 L678 398 L678 383 Z"/>
            </clipPath>
            <clipPath clipPathUnits="userSpaceOnUse" id="clipPath39">
                <path d="M449 415 L476 415 L476 432 L449 432 L449 415 Z"/>
            </clipPath>
            <clipPath clipPathUnits="userSpaceOnUse" id="clipPath40">
                <path d="M229 403 L248 403 L248 418 L229 418 L229 403 Z"/>
            </clipPath>
        </defs>
        <g font-size="14" fill="url(#linearGradient1)" font-family="'Cantarell'" stroke-linejoin="round" stroke="url(#linearGradient1)" stroke-width="0" stroke-miterlimit="0">
            <rect x="10" y="10" clip-path="url(#clipPath1)" width="857" height="757" stroke="none"/>
        </g>
        <g stroke-width="0.1" font-size="14" font-family="'Cantarell'" stroke-linecap="butt">
            <line clip-path="url(#clipPath2)" fill="none" x1="131" x2="131" y1="10" y2="22"/>
            <line clip-path="url(#clipPath2)" fill="none" x1="131" x2="131" y1="22" y2="22"/>
            <line clip-path="url(#clipPath2)" fill="none" x1="131" x2="125" y1="22" y2="28"/>
            <line clip-path="url(#clipPath2)" fill="none" x1="125" x2="125" y1="28" y2="28"/>
            <line clip-path="url(#clipPath2)" fill="none" x1="125" x2="10" y1="28" y2="28"/>
            <text x="16" font-size="12" y="25" clip-path="url(#clipPath3)" font-family="'Dialog'" stroke="none" xml:space="preserve">Driver overview  </text>
            <rect x="170" y="44" clip-path="url(#clipPath4)" fill="none" width="99" height="18" stroke-width="1.1"/>
            <line clip-path="url(#clipPath4)" fill="none" x1="220" x2="220" y1="62" y2="743" stroke-dasharray="5,5" stroke-width="1.1"/>
        </g>
        <g stroke-linecap="butt" font-size="14" fill="url(#linearGradient2)" font-family="'Cantarell'" stroke-dasharray="5,5" stroke="url(#linearGradient2)" stroke-width="1.1">
            <rect x="170" y="44" clip-path="url(#clipPath5)" width="100" opacity="0" height="700" stroke="none"/>
        </g>
        <g stroke-dasharray="5,5" stroke-width="1.1" stroke-linecap="butt">
            <text xml:space="preserve" x="188" y="59" clip-path="url(#clipPath6)" stroke="none">user : User</text>
        </g>
        <g stroke-linecap="butt" font-size="14" fill="url(#linearGradient3)" font-family="'Cantarell'" stroke-dasharray="5,5" stroke="url(#linearGradient3)" stroke-width="1.1">
            <rect x="210" y="110" clip-path="url(#clipPath7)" width="20" height="301" stroke="none"/>
            <rect x="210" y="110" clip-path="url(#clipPath8)" fill="none" width="19" stroke-dasharray="none" rx="0" ry="0" height="300" stroke="black"/>
            <rect x="430" y="101" clip-path="url(#clipPath9)" fill="none" width="99" stroke-dasharray="none" height="18" stroke="black"/>
            <line clip-path="url(#clipPath9)" fill="none" x1="480" x2="480" y1="119" y2="742" stroke="black"/>
            <rect x="430" y="101" clip-path="url(#clipPath10)" fill="url(#linearGradient4)" width="100" opacity="0" height="642" stroke="none"/>
        </g>
        <g stroke-dasharray="5,5" stroke-width="1.1" stroke-linecap="butt">
            <text xml:space="preserve" x="443" y="116" clip-path="url(#clipPath11)" stroke="none">truck : Truck</text>
        </g>
        <g stroke-linecap="butt" font-size="14" fill="url(#linearGradient5)" font-family="'Cantarell'" stroke-dasharray="5,5" stroke="url(#linearGradient5)" stroke-width="1.1">
            <rect x="470" y="190" clip-path="url(#clipPath12)" width="20" height="21" stroke="none"/>
            <rect x="470" y="190" clip-path="url(#clipPath13)" fill="none" width="19" stroke-dasharray="none" rx="0" ry="0" height="20" stroke="black"/>
            <rect x="470" y="330" clip-path="url(#clipPath14)" fill="url(#linearGradient6)" width="20" stroke-dasharray="none" height="21" stroke="none"/>
            <rect x="470" y="330" clip-path="url(#clipPath15)" fill="none" width="19" stroke-dasharray="none" rx="0" ry="0" height="20" stroke="black"/>
            <rect x="630" y="44" clip-path="url(#clipPath16)" fill="none" width="149" stroke-dasharray="none" height="18" stroke="black"/>
            <line clip-path="url(#clipPath16)" fill="none" x1="705" x2="705" y1="62" y2="743" stroke="black"/>
            <rect x="630" y="44" clip-path="url(#clipPath17)" fill="url(#linearGradient7)" width="150" opacity="0" height="700" stroke="none"/>
        </g>
        <g stroke-dasharray="5,5" stroke-width="1.1" stroke-linecap="butt">
            <text xml:space="preserve" x="646" y="59" clip-path="url(#clipPath18)" stroke="none">usualDriver : Person</text>
        </g>
        <g stroke-linecap="butt" font-size="14" fill="url(#linearGradient8)" font-family="'Cantarell'" stroke-dasharray="5,5" stroke="url(#linearGradient8)" stroke-width="1.1">
            <rect x="695" y="250" clip-path="url(#clipPath19)" width="20" height="21" stroke="none"/>
            <rect x="695" y="250" clip-path="url(#clipPath20)" fill="none" width="19" stroke-dasharray="none" rx="0" ry="0" height="20" stroke="black"/>
            <rect x="695" y="389" clip-path="url(#clipPath21)" fill="url(#linearGradient9)" width="20" stroke-dasharray="none" height="21" stroke="none"/>
            <rect x="695" y="389" clip-path="url(#clipPath22)" fill="none" width="19" stroke-dasharray="none" rx="0" ry="0" height="20" stroke="black"/>
            <rect x="10" y="10" clip-path="url(#clipPath23)" fill="none" width="856" stroke-dasharray="none" rx="0" ry="0" height="756" stroke="black"/>
        </g>
        <g text-rendering="optimizeLegibility" stroke-width="1.1" stroke-linecap="butt">
            <line clip-path="url(#clipPath24)" fill="none" x1="230" x2="470" y1="330" y2="330"/>
            <text xml:space="preserve" x="328" y="322" clip-path="url(#clipPath25)" stroke="none">  start()</text>
            <polygon clip-path="url(#clipPath26)" points=" 470 330 454 336 454 324" stroke="none"/>
            <polygon fill="none" clip-path="url(#clipPath26)" points=" 470 330 454 336 454 324"/>
            <line clip-path="url(#clipPath24)" fill="none" x1="230" x2="430" y1="110" y2="110" stroke-dasharray="6.6,3.3"/>
            <text x="294" y="102" clip-path="url(#clipPath27)" stroke-dasharray="6.6,3.3" stroke="none" xml:space="preserve">Create truck</text>
            <line clip-path="url(#clipPath28)" fill="none" x1="414" x2="430" y1="116" y2="110"/>
            <line clip-path="url(#clipPath28)" fill="none" x1="430" x2="414" y1="110" y2="104"/>
            <line clip-path="url(#clipPath24)" fill="none" x1="695" x2="230" y1="270" y2="270" stroke-dasharray="6.6,3.3"/>
            <text x="449" y="288" clip-path="url(#clipPath29)" stroke-dasharray="6.6,3.3" stroke="none" xml:space="preserve">false</text>
            <line clip-path="url(#clipPath30)" fill="none" x1="246" x2="230" y1="264" y2="270"/>
            <line clip-path="url(#clipPath30)" fill="none" x1="230" x2="246" y1="270" y2="276"/>
            <line clip-path="url(#clipPath24)" fill="none" x1="470" x2="230" y1="210" y2="210" stroke-dasharray="6.6,3.3"/>
            <text x="315" y="228" clip-path="url(#clipPath31)" stroke-dasharray="6.6,3.3" stroke="none" xml:space="preserve">usualDriver</text>
            <line clip-path="url(#clipPath32)" fill="none" x1="246" x2="230" y1="204" y2="210"/>
            <line clip-path="url(#clipPath32)" fill="none" x1="230" x2="246" y1="210" y2="216"/>
            <line clip-path="url(#clipPath24)" fill="none" x1="230" x2="695" y1="250" y2="250"/>
            <text xml:space="preserve" x="400" y="242" clip-path="url(#clipPath33)" stroke="none">  isInTruck(): Boolean</text>
            <polygon clip-path="url(#clipPath34)" points=" 695 250 679 256 679 244" stroke="none"/>
            <polygon fill="none" clip-path="url(#clipPath34)" points=" 695 250 679 256 679 244"/>
            <line clip-path="url(#clipPath24)" fill="none" x1="230" x2="470" y1="190" y2="190"/>
            <text xml:space="preserve" x="274" y="182" clip-path="url(#clipPath35)" stroke="none">  getUsualDriver(): Person</text>
            <polygon clip-path="url(#clipPath36)" points=" 470 190 454 196 454 184" stroke="none"/>
            <polygon fill="none" clip-path="url(#clipPath36)" points=" 470 190 454 196 454 184"/>
            <line clip-path="url(#clipPath24)" fill="none" x1="230" x2="695" y1="390" y2="390"/>
            <text xml:space="preserve" x="400" y="382" clip-path="url(#clipPath37)" stroke="none">  isInTruck(): Boolean</text>
            <polygon clip-path="url(#clipPath38)" points=" 695 390 679 396 679 384" stroke="none"/>
            <polygon fill="none" clip-path="url(#clipPath38)" points=" 695 390 679 396 679 384"/>
            <line clip-path="url(#clipPath24)" fill="none" x1="695" x2="230" y1="410" y2="410" stroke-dasharray="6.6,3.3"/>
            <text x="450" y="428" clip-path="url(#clipPath39)" stroke-dasharray="6.6,3.3" stroke="none" xml:space="preserve">true</text>
            <line clip-path="url(#clipPath40)" fill="none" x1="246" x2="230" y1="404" y2="410"/>
            <line clip-path="url(#clipPath40)" fill="none" x1="230" x2="246" y1="410" y2="416"/>
            <line clip-path="url(#clipPath24)" fill="none" x1="230" x2="430" y1="110" y2="110" stroke-dasharray="6.6,3.3"/>
            <text x="294" y="102" clip-path="url(#clipPath27)" stroke-dasharray="6.6,3.3" stroke="none" xml:space="preserve">Create truck</text>
            <line clip-path="url(#clipPath28)" fill="none" x1="414" x2="430" y1="116" y2="110"/>
            <line clip-path="url(#clipPath28)" fill="none" x1="430" x2="414" y1="110" y2="104"/>
            <line clip-path="url(#clipPath24)" fill="none" x1="230" x2="470" y1="190" y2="190"/>
            <text xml:space="preserve" x="274" y="182" clip-path="url(#clipPath35)" stroke="none">  getUsualDriver(): Person</text>
            <polygon clip-path="url(#clipPath36)" points=" 470 190 454 196 454 184" stroke="none"/>
            <polygon fill="none" clip-path="url(#clipPath36)" points=" 470 190 454 196 454 184"/>
            <line clip-path="url(#clipPath24)" fill="none" x1="470" x2="230" y1="210" y2="210" stroke-dasharray="6.6,3.3"/>
            <text x="315" y="228" clip-path="url(#clipPath31)" stroke-dasharray="6.6,3.3" stroke="none" xml:space="preserve">usualDriver</text>
            <line clip-path="url(#clipPath32)" fill="none" x1="246" x2="230" y1="204" y2="210"/>
            <line clip-path="url(#clipPath32)" fill="none" x1="230" x2="246" y1="210" y2="216"/>
            <line clip-path="url(#clipPath24)" fill="none" x1="230" x2="695" y1="250" y2="250"/>
            <text xml:space="preserve" x="400" y="242" clip-path="url(#clipPath33)" stroke="none">  isInTruck(): Boolean</text>
            <polygon clip-path="url(#clipPath34)" points=" 695 250 679 256 679 244" stroke="none"/>
            <polygon fill="none" clip-path="url(#clipPath34)" points=" 695 250 679 256 679 244"/>
            <line clip-path="url(#clipPath24)" fill="none" x1="695" x2="230" y1="270" y2="270" stroke-dasharray="6.6,3.3"/>
            <text x="449" y="288" clip-path="url(#clipPath29)" stroke-dasharray="6.6,3.3" stroke="none" xml:space="preserve">false</text>
            <line clip-path="url(#clipPath30)" fill="none" x1="246" x2="230" y1="264" y2="270"/>
            <line clip-path="url(#clipPath30)" fill="none" x1="230" x2="246" y1="270" y2="276"/>
            <line clip-path="url(#clipPath24)" fill="none" x1="230" x2="470" y1="330" y2="330"/>
            <text xml:space="preserve" x="328" y="322" clip-path="url(#clipPath25)" stroke="none">  start()</text>
            <polygon clip-path="url(#clipPath26)" points=" 470 330 454 336 454 324" stroke="none"/>
            <polygon fill="none" clip-path="url(#clipPath26)" points=" 470 330 454 336 454 324"/>
            <line clip-path="url(#clipPath24)" fill="none" x1="230" x2="695" y1="390" y2="390"/>
            <text xml:space="preserve" x="400" y="382" clip-path="url(#clipPath37)" stroke="none">  isInTruck(): Boolean</text>
            <polygon clip-path="url(#clipPath38)" points=" 695 390 679 396 679 384" stroke="none"/>
            <polygon fill="none" clip-path="url(#clipPath38)" points=" 695 390 679 396 679 384"/>
            <line clip-path="url(#clipPath24)" fill="none" x1="695" x2="230" y1="410" y2="410" stroke-dasharray="6.6,3.3"/>
            <text x="450" y="428" clip-path="url(#clipPath39)" stroke-dasharray="6.6,3.3" stroke="none" xml:space="preserve">true</text>
            <line clip-path="url(#clipPath40)" fill="none" x1="246" x2="230" y1="404" y2="410"/>
            <line clip-path="url(#clipPath40)" fill="none" x1="230" x2="246" y1="410" y2="416"/>
        </g>
    </g>
</svg>
