<?xml version="1.0" encoding="UTF-8"?>
<svg xmlns="http://www.w3.org/2000/svg" xmlns:xlink="http://www.w3.org/1999/xlink" xmlns:zwibbler="http://zwibbler.com/xml" version="1.2" baseProfile="tiny" width="600" height="400" viewBox="0 0 600 400">
  <path d="M0,0 L600,0 L600,400 L0,400 L0,0 Z" fill="#ffffff"/>
  <path d="M95.98881180969343,7.394962123506545 C329.56287801957774,7.394962123506545,284.61732492591483,7.394962123506545,476.32865122586145,7.394962123506545 C476.32865122586145,97.64598344106398,476.32865122586145,104.42048797865789,476.32865122586145,252.69142053382637 C273.0627831089334,252.69142053382637,374.4417304209816,252.69142053382637,95.98881180969343,252.69142053382637 C95.98881180969343,65.29202284774709,95.98881180969343,80.1264090880774,95.98881180969343,7.394962123506545 Z" transform="matrix(1.0000000000000002 0 0 1 0 0)" fill="none" stroke="#000000" stroke-width="2" stroke-linejoin="round" stroke-linecap="round" zwibbler:id="76sfmd"/>
  <g zwibbler:id="ial14a">
    <text x="0" y="20" transform="matrix(1 0 0 1 225.8225225225226 69.66602487649999)" fill="#000000" font-weight="normal" font-size="20" font-style="normal" font-family="Arial">
      Show     </text>
    <text x="0" y="40" transform="matrix(1 0 0 1 225.8225225225226 69.66602487649999)" fill="#000000" font-weight="normal" font-size="20" font-style="normal" font-family="Arial">
      commands of     </text>
    <text x="0" y="60" transform="matrix(1 0 0 1 225.8225225225226 69.66602487649999)" fill="#000000" font-weight="normal" font-size="20" font-style="normal" font-family="Arial">
      last month    </text>
  </g>
  <path d="M282.67387387387396,61.62770193817704 C326.6312619734961,61.62770193817704,362.2657657657659,80.01368871953652,362.2657657657659,102.69395280442792 C362.2657657657659,125.37421688931933,326.6312619734961,143.7602036706788,282.67387387387396,143.7602036706788 C238.7164857742518,143.7602036706788,203.08198198198207,125.37421688931933,203.08198198198207,102.69395280442792 C203.08198198198207,80.01368871953652,238.7164857742518,61.62770193817704,282.67387387387396,61.62770193817704 Z" fill="none" stroke="#000000" stroke-width="2" stroke-linejoin="round" stroke-linecap="round" zwibbler:id="ek2cpo"/>
  <text x="0" y="20" transform="matrix(1 0 0 1 99.12522522522525 7.400259110734254)" fill="#000000" font-weight="normal" font-size="20" font-style="normal" font-family="Arial" zwibbler:id="1q6l1k">
    System  </text>
  <path d="M122.4072072072072,34.47233118280633 L119.45859064640423,35.02519678795689 M116.50997408560127,35.578062393107444 L113.56135752479831,36.130927998258 M110.61274096399535,36.68379360340856 L107.66412440319239,37.23665920855912 M104.71550784238943,37.789524813709676 L101.76689128158645,38.342390418860234 M98.81827472078349,38.895256024010784 L95.86965815998053,39.44812162916134 M92.92104159917756,40.00098723431189 L89.9724250383746,40.55385283946245 M87.02380847757162,41.106718444613 L84.07519191676866,41.65958404976356 M81.12657535596568,42.21244965491411 L78.17795879516272,42.76531526006467 M75.22934223435975,43.31818086521522 L72.28072567355679,43.871046470365776 M69.33210911275381,44.42391207551633 L66.38349255195085,44.976777680666885 M63.434875991147884,45.529643285817436 L61.765765765765764,45.84260145307658" fill="none" stroke="#000000" stroke-width="2" stroke-linejoin="round" zwibbler:id="ghwpin"/>
  <g zwibbler:id="3m2naw">
    <text x="0" y="20" transform="matrix(1 0 0 1 2.207207207207233 43.13539424586938)" fill="#000000" font-weight="normal" font-size="20" font-style="normal" font-family="Arial">
      Subject     </text>
    <text x="0" y="40" transform="matrix(1 0 0 1 2.207207207207233 43.13539424586938)" fill="#000000" font-weight="normal" font-size="20" font-style="normal" font-family="Arial">
      (a     </text>
    <text x="0" y="60" transform="matrix(1 0 0 1 2.207207207207233 43.13539424586938)" fill="#000000" font-weight="normal" font-size="20" font-style="normal" font-family="Arial">
      Classifier)    </text>
  </g>
  <g zwibbler:id="skdkjj"/>
  <path d="M493.83603603603615,75.62188073235583 C541.142702509143,75.62188073235583,543.6168752998882,75.62188073235583,557.7261261261262,75.62188073235583 C557.7261261261262,118.8803450071909,557.7261261261262,171.30994032808692,557.7261261261262,183.9101690206442 C525.7936551705089,183.9101690206442,533.0130423277369,183.9101690206442,493.83603603603615,183.9101690206442 C493.83603603603615,136.64786190156218,493.83603603603615,150.7059208379092,493.83603603603615,75.62188073235583 Z" transform="matrix(1 0 0 1 0 -2.842170943040401e-14)" fill="none" stroke="#000000" stroke-width="2" stroke-linejoin="round" stroke-linecap="round" zwibbler:id="6n6ylc"/>
  <path d="M494.9189189189189,101.06962848010363 C522.2460318017145,101.3012141825002,525.9663395558234,101.33274221431468,558.8090090090091,101.61106992154507" fill="none" stroke="#000000" stroke-width="2" stroke-linejoin="round" stroke-linecap="round" zwibbler:id="xwwo4w"/>
  <text x="0" y="20" transform="matrix(1 0 0 1 507.9135135135134 76.70476361523876)" fill="#000000" font-weight="normal" font-size="20" font-style="normal" font-family="Arial" zwibbler:id="cmev05">
    Shell  </text>
  <text x="0" y="20" transform="matrix(1 0 0 1 486.7972972972973 49.632691543166686)" fill="#000000" font-weight="normal" font-size="20" font-style="normal" font-family="Arial" zwibbler:id="v2akyl">
    « Actor »  </text>
  <g zwibbler:id="nk4an3"/>
  <path d="M361.1828828828829,117.31287172334689 C413.8069131496324,118.38683152470912,432.99918232027267,118.77851048737524,493.8360360360361,120.02007893055409" fill="none" stroke="#000000" stroke-width="2" stroke-linejoin="round" stroke-linecap="round" zwibbler:id="u9wyqw"/>
  <g zwibbler:id="eaobhx">
    <text x="0" y="20" transform="matrix(1 0 0 1 113.20270270270271 310.0660248764999)" fill="#000000" font-weight="normal" font-size="20" font-style="normal" font-family="Arial">
      Association    </text>
    <text x="0" y="40" transform="matrix(1 0 0 1 113.20270270270271 310.0660248764999)" fill="#000000" font-weight="normal" font-size="20" font-style="normal" font-family="Arial">
      (2     </text>
    <text x="0" y="60" transform="matrix(1 0 0 1 113.20270270270271 310.0660248764999)" fill="#000000" font-weight="normal" font-size="20" font-style="normal" font-family="Arial">
      properties)    </text>
  </g>
  <path d="M401.790990990991,125.97593478640991 L399.55073497928345,127.97124253260048 M397.3104789675759,129.96655027879106 L395.0702229558683,131.96185802498164 M392.82996694416073,133.9571657711722 L390.58971093245316,135.9524735173628 M388.3494549207456,137.94778126355337 L386.109198909038,139.94308900974394 M383.86894289733044,141.93839675593452 L381.62868688562287,143.9337045021251 M379.3884308739153,145.92901224831567 L377.1481748622077,147.92431999450625 M374.90791885050015,149.91962774069682 L372.6676628387926,151.9149354868874 M370.427406827085,153.91024323307798 L368.18715081537744,155.90555097926855 M365.94689480366986,157.90085872545913 L363.7066387919623,159.8961664716497 M361.4663827802547,161.89147421784028 L359.22612676854715,163.88678196403086 M356.9858707568396,165.88208971022144 L354.745614745132,167.877397456412 M352.50535873342443,169.8727052026026 L350.26510272171686,171.86801294879317 M348.0248467100093,173.86332069498374 L345.7845906983017,175.85862844117432 M343.54433468659414,177.8539361873649 L341.30407867488657,179.84924393355547 M339.063822663179,181.84455167974605 L336.8235666514714,183.83985942593662 M334.58331063976385,185.8351671721272 L332.3430546280563,187.83047491831778 M330.1027986163487,189.82578266450835 L327.86254260464113,191.82109041069893 M325.62228659293356,193.8163981568895 L323.382030581226,195.81170590308008 M321.1417745695184,197.80701364927066 L318.90151855781085,199.80232139546123 M316.6612625461033,201.7976291416518 L314.4210065343957,203.7929368878424 M312.18075052268813,205.78824463403296 L309.94049451098056,207.78355238022354 M307.700238499273,209.77886012641412 L305.4599824875654,211.7741678726047 M303.21972647585784,213.76947561879527 L300.97947046415027,215.76478336498585 M298.7392144524427,217.76009111117642 L296.4989584407351,219.755398857367 M294.25870242902755,221.75070660355757 L292.01844641732,223.74601434974815 M289.7781904056124,225.74132209593873 L287.53793439390483,227.7366298421293 M285.29767838219726,229.73193758831988 L283.0574223704897,231.72724533451046 M280.8171663587821,233.72255308070103 L278.57691034707454,235.7178608268916 M276.336654335367,237.71316857308219 L274.0963983236594,239.70847631927273 M271.8561423119518,241.7037840654633 L269.61588630024426,243.6990918116539 M267.3756302885367,245.69439955784446 L265.1353742768291,247.689707304035 M262.89511826512154,249.68501505022556 L260.65486225341397,251.68032279641614 M258.4146062417064,253.6756305426067 L256.1743502299988,255.67093828879726 M253.93409421829125,257.6662460349878 L251.69383820658368,259.6615537811784 M249.4535821948761,261.65686152736896 L247.21332618316853,263.65216927355954 M244.97307017146096,265.6474770197501 L242.7328141597534,267.6427847659407 M240.49255814804582,269.63809251213127 L238.25230213633824,271.63340025832184 M236.01204612463067,273.6287080045124 L233.7717901129231,275.624015750703 M231.53153410121553,277.61932349689357 L229.29127808950795,279.61463124308415 M227.05102207780038,281.6099389892747 L224.8107660660928,283.6052467354653 M222.57051005438524,285.6005544816559 L220.33025404267767,287.59586222784645 M218.0899980309701,289.59116997403703 L215.84974201926252,291.5864777202276 M213.60948600755495,293.5817854664182 L211.36922999584738,295.57709321260876 M209.1289739841398,297.57240095879934 L206.88871797243223,299.5677087049899 M204.64846196072466,301.56301645118043 L202.4082059490171,303.558324197371 M200.16794993730952,305.5536319435615 L197.92769392560194,307.5489396897521 M195.6874379138944,309.5442474359426 L193.44718190218683,311.5395551821332 M191.20692589047928,313.5348629283237 L188.9666698787717,315.5301706745143 M186.72641386706417,317.5254784207048 L184.4861578553566,319.5207861668954 M182.24590184364905,321.5160939130859 L180.00564583194148,323.5114016592765 M177.76538982023393,325.506709405467 L175.52513380852636,327.5020171516576 M173.28487779681882,329.4973248978481 L171.04462178511125,331.4926326440387 M168.8043657734037,333.4879403902292 L166.56410976169613,335.4832481364198 M164.3238537499886,337.4785558826103 L164.0981981981982,337.6795383900136" fill="none" stroke="#000000" stroke-width="2" stroke-linejoin="round" zwibbler:id="8wtkhv"/>
  <text x="0" y="20" transform="matrix(1 0 0 1 240.4414414414415 280.82818703866224)" fill="#000000" font-weight="normal" font-size="20" font-style="normal" font-family="Arial" zwibbler:id="1u70fn">
    Relationship  </text>
  <path d="M210.6621621621622,344.71827712875233 C230.87395563015724,330.18395373603676,227.53130294791794,332.5876590356246,258.85045045045047,310.0660248765" fill="none" stroke="#000000" stroke-width="2" stroke-linejoin="round" stroke-linecap="round" zwibbler:id="atyfc2"/>
  <g zwibbler:id="fpci6z"/>
  <g zwibbler:id="tuumtu"/>
  <g zwibbler:id="3pm372"/>
  <g zwibbler:id="ezj0a5"/>
  <g zwibbler:id="wjfg8k"/>
  <g zwibbler:id="rwkdh"/>
  <path d="M256.6846846846847,302.4858446963199 L259.70068271396394,308.577060912536 L269.0109375,318.6698677819055 L270.72514956362613,312.5025113629865 L270.7833122184685,307.0415668246982 L271.75621480855864,305.2818821400135 L262.56440033783787,303.08650629541887 L254.51891891891893,302.4858446963199" fill="none" stroke="#000000" stroke-width="3" stroke-linejoin="round" stroke-linecap="round" zwibbler:id="74a0vn"/>
  <path d="M43.8981981981982,153.048006858482 L40.99641047297298,150.5269201467703 L36.31801801801802,154.76116141929282 L33.361240146396405,160.08674559722076 L33.699641047297305,165.4123297751487 L36.948289695945945,171.82079683595947 L39.97380525056306,174.22555823798655 L46.859206081081105,175.7673973427162 L53.466483671171176,174.81987482019372 L55.52861416103606,172.25860300150003 L56.888562781531554,166.11874165577933 L56.720419833896415,161.84643028190544 L53.87890976914416,154.06955457807658 L51.3768581081081,152.3077548877613 L48.23818975225227,152.0243441332568 L38.88140484234235,156.43201586749097 L36.31801801801802,159.00386271433788" fill="none" stroke="#000000" stroke-width="3" stroke-linejoin="round" stroke-linecap="round" zwibbler:id="v74qse"/>
  <path d="M43.8981981981982,175.78854739902252 L42.33309403153153,187.40415832244597 L42.27387387387387,205.28441592379733 L42.27387387387387,203.9435023539775" fill="none" stroke="#000000" stroke-width="3" stroke-linejoin="round" stroke-linecap="round" zwibbler:id="1ajh1m"/>
  <path d="M42.27387387387387,179.0371960476712 L44.991656109234256,185.79463903753606 L52.019819819819816,193.65611496659014" fill="none" stroke="#000000" stroke-width="3" stroke-linejoin="round" stroke-linecap="round" zwibbler:id="wmvph4"/>
  <path d="M45.522522522522536,181.7444032548784 L40.1081081081081,186.63852628415765 L36.73255912162162,192.45479176839189 L34.152252252252254,194.738997849473" fill="none" stroke="#000000" stroke-width="3" stroke-linejoin="round" stroke-linecap="round" zwibbler:id="xy899l"/>
  <path d="M43.8981981981982,207.73359244406757 L44.693440315315335,210.03471857019372 L50.370115427927914,217.7587191332568 L49.854054054054075,217.47953839001352" fill="none" stroke="#000000" stroke-width="3" stroke-linejoin="round" stroke-linecap="round" zwibbler:id="bwlz2l"/>
  <path d="M41.73243243243246,208.27503388550903 L35.658136261261276,217.41185820983333 L33.06936936936938,219.64530415577931" fill="none" stroke="#000000" stroke-width="3" stroke-linejoin="round" stroke-linecap="round" zwibbler:id="iosed1"/>
  <text x="0" y="20" transform="matrix(1 0 0 1 21.69909909909913 225.05971857019372)" fill="#000000" font-weight="normal" font-size="20" font-style="normal" font-family="Arial" zwibbler:id="3b4mck">
    User  </text>
  <path d="M59.60000000000002,180.12007893055406 C174.23165601372875,136.16357925611675,126.61660391062128,154.42198269415042,203.62342342342345,124.89305190352704" fill="none" stroke="#000000" stroke-width="2" stroke-linejoin="round" stroke-linecap="round" zwibbler:id="c8c6d1"/>
  <text x="0" y="20" transform="matrix(1 0 0 1 98.58378378378382 364.75161046208564)" fill="#000000" font-weight="normal" font-size="20" font-style="normal" font-family="Arial" zwibbler:id="w0q1jv">
    (a straight line)  </text>
  <text x="0" y="20" transform="matrix(1 0 0 1 194.41891891891896 157.37953839001355)" fill="#000000" font-weight="normal" font-size="20" font-style="normal" font-family="Arial" zwibbler:id="qth6b8">
    Login  </text>
  <path d="M216.61801801801803,157.92097983145496 C234.85883893010615,157.92097983145496,249.64594594594598,163.86006379683326,249.64594594594598,171.18629514677028 C249.64594594594598,178.5125264967073,234.85883893010615,184.4516104620856,216.61801801801803,184.4516104620856 C198.37719710592992,184.4516104620856,183.5900900900901,178.5125264967073,183.5900900900901,171.18629514677028 C183.5900900900901,163.86006379683326,198.37719710592992,157.92097983145496,216.61801801801803,157.92097983145496 Z" fill="none" stroke="#000000" stroke-width="2" stroke-linejoin="round" stroke-linecap="round" zwibbler:id="6b9l5l"/>
  <g zwibbler:id="lcocvf"/>
  <path d="M248.56306306306305,141.67773658821173 L248.66306306306305,141.77773658821172" fill="none" stroke="#000000" stroke-width="3" stroke-linejoin="round" stroke-linecap="round" zwibbler:id="vc2nwb"/>
  <g zwibbler:id="wujz19">
    <path d="M246.93873873873878,142.2191780296532 L245.08212205892823,144.5756530463358 M243.2255053791177,146.93212806301838 L241.36888869930715,149.288603079701 M239.5122720194966,151.6450780963836 L237.65565533968606,154.00155311306622 M235.79903865987552,156.35802812974882 L233.94242198006498,158.71450314643144 M232.8612612612613,160.08674559722076 M235.80090433762797,145.85268438533996 M235.54747762528177,147.07980320301627 L234.9407168485117,150.01780275369245 M234.33395607174162,152.9558023043686 L233.72719529497155,155.89380185504479 M233.12043451820148,158.83180140572094 L232.8612612612613,160.08674559722076 L234.41625806050033,159.35498239757885 M237.13071416710332,158.07759128858922 L239.8451702737063,156.80020017959959 M242.55962638030928,155.52280907060995 L245.27408248691225,154.24541796162032 M246.01229607658593,153.89802333118564" fill="none" stroke="#000000" stroke-width="2" stroke-linejoin="round"/>
    <path d="M235.80090433762797,145.85268438533996 C234.91901141471797,150.1229027489042,231.3295525004176,158.8799447553439,232.8612612612613,160.08674559722076 C234.39297002210498,161.2935464390976,242.06698563198853,155.75464001099618,246.01229607658593,153.89802333118564" fill="none" stroke="#000000" stroke-width="2" stroke-linejoin="round"/>
  </g>
  <text x="0" y="20" transform="matrix(1 0 0 1 298.91711711711713 320.89485370532884)" fill="#000000" font-weight="normal" font-size="20" font-style="normal" font-family="Arial" zwibbler:id="81xzi9">
    Directed relationship  </text>
  <path d="M369.30450450450456,325.22638523686044 C361.5330004849105,317.69038133907225,360.15391658213736,316.35308785759526,351.436936936937,307.9002591107343" fill="none" stroke="#000000" stroke-width="2" stroke-linejoin="round" stroke-linecap="round" zwibbler:id="nbkzhc"/>
  <path d="M342.7738738738739,313.3146735251487 L348.94757530968474,308.49457569294145 L356.31836993243246,304.58393028190545 L358.8394566441442,301.94440325487835 L356.8513513513514,300.4977394035271 L353.93687359234235,299.7997875454189 L346.1494228603604,299.8378576467703 L344.3389780405406,306.2082546062298 L342.2324324324324,310.0660248765" fill="none" stroke="#000000" stroke-width="3" stroke-linejoin="round" stroke-linecap="round" zwibbler:id="mi6khw"/>
  <text x="0" y="20" transform="matrix(1 0 0 1 287.00540540540544 371.24890775938286)" fill="#000000" font-weight="normal" font-size="20" font-style="normal" font-family="Arial" zwibbler:id="k5q4zq">
    Dependency  </text>
  <path d="M338.44234234234233,377.2047636152388 L338.54234234234235,377.3047636152388" fill="none" stroke="#000000" stroke-width="3" stroke-linejoin="round" stroke-linecap="round" zwibbler:id="54uopa"/>
  <path d="M339.52522522522526,376.66332217379727 C349.63155019879383,357.2928659744574,346.12396876239524,364.0157303942214,352.5198198198198,351.75701586749096" fill="none" stroke="#000000" stroke-width="2" stroke-linejoin="round" stroke-linecap="round" zwibbler:id="wjtby9"/>
  <path d="M340.6081081081082,347.4254843359595 L354.9541913006757,350.4763799581442 L368.19624155405404,354.24426248911266 L363.2598184121622,348.0557560138874 L360.30304054054056,345.97882048460815 L356.7170484938064,340.9662571400135 L347.16779807150897,345.6287870527388 L341.1495495495496,347.4254843359595" fill="none" stroke="#000000" stroke-width="3" stroke-linejoin="round" stroke-linecap="round" zwibbler:id="gh7syj"/>
  <text x="0" y="20" transform="matrix(1 0 0 1 402.3324324324324 371.248907759383)" fill="#000000" font-weight="normal" font-size="20" font-style="normal" font-family="Arial" zwibbler:id="k5hax">
    (dotted line)  </text>
  <path d="M61.765765765765764,184.4516104620856 C115.46778757458156,180.1744582826224,134.09843196801677,178.69060164951694,184.13153153153155,174.70566451613965" fill="none" stroke="#000000" stroke-width="2" stroke-linejoin="round" stroke-linecap="round" zwibbler:id="53kly2"/>
  <g zwibbler:id="tujvhk">
    <text x="0" y="20" transform="matrix(1 0 0 1 319.7459459459459 18.483141993617096)" fill="#000000" font-weight="normal" font-size="20" font-style="normal" font-family="Arial">
      Show     </text>
    <text x="0" y="40" transform="matrix(1 0 0 1 319.7459459459459 18.483141993617096)" fill="#000000" font-weight="normal" font-size="20" font-style="normal" font-family="Arial">
      commands of     </text>
    <text x="0" y="60" transform="matrix(1 0 0 1 319.7459459459459 18.483141993617096)" fill="#000000" font-weight="normal" font-size="20" font-style="normal" font-family="Arial">
      last year    </text>
  </g>
  <path d="M376.5972972972973,10.444819055294147 C420.55468539691947,10.444819055294147,456.18918918918916,28.830805836653628,456.18918918918916,51.51106992154503 C456.18918918918916,74.19133400643643,420.55468539691947,92.57732078779591,376.5972972972973,92.57732078779591 C332.63990919767514,92.57732078779591,297.00540540540544,74.19133400643643,297.00540540540544,51.51106992154503 C297.00540540540544,28.830805836653628,332.63990919767514,10.444819055294147,376.5972972972973,10.444819055294147 Z" fill="none" stroke="#000000" stroke-width="2" stroke-linejoin="round" stroke-linecap="round" zwibbler:id="x5fixe"/>
  <text x="0" y="20" transform="matrix(1 0 0 1 139.73333333333335 27.975033885508992)" fill="#000000" font-weight="normal" font-size="20" font-style="normal" font-family="Arial" zwibbler:id="77f6kw">
    Show commands  </text>
  <path d="M215.80585585585587,24.184943795418945 C259.91275888098687,24.184943795418945,295.6684684684684,31.820908893762457,295.6684684684684,41.24034920082434 C295.6684684684684,50.659789507886224,259.91275888098687,58.295754606229735,215.80585585585587,58.295754606229735 C171.6989528307248,58.295754606229735,135.94324324324327,50.659789507886224,135.94324324324327,41.24034920082434 C135.94324324324327,31.820908893762457,171.6989528307248,24.184943795418945,215.80585585585587,24.184943795418945 Z" transform="matrix(1 0 0 1 -2.842170943040401e-14 -7.105427357601002e-15)" fill="none" stroke="#000000" stroke-width="2" stroke-linejoin="round" stroke-linecap="round" zwibbler:id="t1h7pq"/>
  <path d="M198.20900900900904,65.33449334496848 C211.79334998298913,76.72781158120986,207.4562395892405,73.09023512193681,214.99369369369373,79.41197082244597" fill="none" stroke="#000000" stroke-width="2" stroke-linejoin="round" stroke-linecap="round" zwibbler:id="pcs72b"/>
  <path d="M318.409009009009,23.643502353977482 C293.8849636739228,28.10241968762955,300.6875998637712,26.865576744020736,288.6297297297298,29.05791676839192" fill="none" stroke="#000000" stroke-width="2" stroke-linejoin="round" stroke-linecap="round" zwibbler:id="vy36o2"/>
  <g zwibbler:id="37fo3o"/>
  <path d="M207.41351351351352,58.295754606229735 L203.43730292792793,60.6687909237973 L191.37331081081084,71.60760004541893 L186.83873873873875,74.36133737650002 L188.01045185810813,61.091792049923434 L201.9990990990991,61.00296181343694" fill="none" stroke="#000000" stroke-width="3" stroke-linejoin="round" stroke-linecap="round" zwibbler:id="4hjdnr"/>
  <path d="M282.13243243243244,20.936295146770277 L280.68048106700456,24.32136165859461 L280.00896677927926,30.458050495869383 L287.95292792792793,31.802136574135158 L289.04427083333337,32.78878670082434 L287.3744738879505,29.463997849472996 L284.8988597972973,26.765250664788308 L283.2153153153153,20.936295146770277" fill="none" stroke="#000000" stroke-width="3" stroke-linejoin="round" stroke-linecap="round" zwibbler:id="p8l2rq"/>
  <text x="0" y="20" transform="matrix(1 0 0 1 463.51531531531526 351.7570158674911)" fill="#000000" font-weight="normal" font-size="20" font-style="normal" font-family="Arial" zwibbler:id="cm0kwi">
    Generalization  </text>
  <path d="M515.2063063063065,356.8840428945181 C507.4348022867124,349.3480389967299,506.0557183839392,348.0107455152529,497.33873873873887,339.5579167683919" fill="none" stroke="#000000" stroke-width="2" stroke-linejoin="round" stroke-linecap="round" zwibbler:id="g3267c"/>
  <path d="M488.6756756756758,344.97233118280633 L494.8493771114866,340.1522333505991 L502.2201717342343,336.2415879395631 L504.7412584459461,333.602060912536 L502.7531531531533,332.1553970611847 L499.8386753941442,331.45744520307653 L492.05122466216227,331.49551530442795 L490.2407798423425,337.8659122638874 L488.13423423423427,341.72368253415766" fill="none" stroke="#000000" stroke-width="3" stroke-linejoin="round" stroke-linecap="round" zwibbler:id="nswht8"/>
</svg>
